# xmcd CD database file
#
# Track frame offsets:
#	150
#	21895
#	42098
#
# Disc length: 849 seconds
#
# Revision: 0
# Processed by: cddbd v1.5.1PL0 Copyright (c) Steve Scherf et al.
# Submitted via: CDex 1.51
#
DISCID=1a034f03
DTITLE=S.E.S - 夢をかさねて
DYEAR=1999
DGENRE=JPop
TTITLE0=夢をかさねて
TTITLE1=Little Bird
TTITLE2=夢をかさねて (Instrumental)
EXTD=YEAR: 1999
EXTT0=
EXTT1=
EXTT2=
PLAYORDER=
